<svg width="198" height="57" viewBox="0 0 198 57" fill="none" xmlns="http://www.w3.org/2000/svg">
<path d="M4.2605 21.1889L28.1217 2.48157L28.1218 2.48156C30.4202 0.679598 31.5694 -0.22138 31.8277 0.0464362C32.0861 0.314253 31.1443 1.43032 29.2609 3.66246L24.5224 9.27825C18.9542 15.8773 16.1701 19.1769 17.2239 22.2674C17.2322 22.2917 17.2406 22.3159 17.2492 22.34C18.3441 25.4163 22.5758 26.2713 31.0392 27.9813C34.6764 28.7162 36.495 29.0837 36.8193 30.3305C36.8218 30.3401 36.8242 30.3497 36.8266 30.3593C37.1328 31.6107 35.7065 32.7972 32.8537 35.1702L9.53938 54.5641L9.53933 54.5642C7.41641 56.3301 6.35495 57.2131 6.08901 56.9562C5.82307 56.6993 6.66872 55.6079 8.36002 53.425L13.3568 46.9759C18.4327 40.4246 20.9706 37.1489 19.8653 34.1471C18.76 31.1452 14.7038 30.2975 6.5915 28.6022L5.96122 28.4705L5.96119 28.4705C2.21128 27.6869 0.336332 27.295 0.0372975 26.0147C-0.261738 24.7344 1.24568 23.5526 4.2605 21.1889Z" fill="#00C8E8"/>
<path d="M56.524 34.33C55.3507 34.33 54.291 34.1247 53.345 33.714C52.4063 33.296 51.6327 32.702 51.024 31.932C50.4227 31.1547 50.0413 30.2307 49.88 29.16L53.004 28.698C53.224 29.6073 53.6787 30.3077 54.368 30.799C55.0573 31.2903 55.842 31.536 56.722 31.536C57.2133 31.536 57.69 31.459 58.152 31.305C58.614 31.151 58.9917 30.9237 59.285 30.623C59.5857 30.3223 59.736 29.952 59.736 29.512C59.736 29.1893 59.6333 28.8923 59.428 28.621C59.2227 28.3423 58.812 28.1113 58.196 27.928L54.082 26.718C53.774 26.63 53.4147 26.5053 53.004 26.344C52.6007 26.1827 52.2083 25.9517 51.827 25.651C51.4457 25.3503 51.1267 24.9543 50.87 24.463C50.6207 23.9643 50.496 23.3373 50.496 22.582C50.496 21.5187 50.7637 20.635 51.299 19.931C51.8343 19.227 52.5493 18.7027 53.444 18.358C54.3387 18.0133 55.3287 17.8447 56.414 17.852C58.0567 17.874 59.428 18.281 60.528 19.073C61.628 19.865 62.3687 21.0053 62.75 22.494L59.516 23.044C59.34 22.274 58.9513 21.6873 58.35 21.284C57.7487 20.8807 57.0887 20.668 56.37 20.646C55.9007 20.6313 55.457 20.6973 55.039 20.844C54.6283 20.9833 54.291 21.1887 54.027 21.46C53.7703 21.7313 53.642 22.054 53.642 22.428C53.642 22.7727 53.7483 23.055 53.961 23.275C54.1737 23.4877 54.4413 23.66 54.764 23.792C55.0867 23.924 55.4167 24.034 55.754 24.122L58.504 24.87C58.9147 24.98 59.3693 25.1267 59.868 25.31C60.3667 25.486 60.8433 25.7353 61.298 26.058C61.76 26.3733 62.1377 26.7913 62.431 27.312C62.7317 27.8327 62.882 28.4927 62.882 29.292C62.882 30.1427 62.7023 30.887 62.343 31.525C61.991 32.1557 61.5143 32.68 60.913 33.098C60.3117 33.5087 59.6297 33.8167 58.867 34.022C58.1117 34.2273 57.3307 34.33 56.524 34.33ZM65.2778 39.28V22.12H67.9178V22.78C68.3211 22.4647 68.7758 22.2227 69.2818 22.054C69.7951 21.878 70.3598 21.79 70.9758 21.79C72.1124 21.79 73.1024 22.0613 73.9458 22.604C74.7891 23.1467 75.4418 23.891 75.9038 24.837C76.3731 25.7757 76.6078 26.85 76.6078 28.06C76.6078 29.248 76.3768 30.315 75.9148 31.261C75.4601 32.207 74.8221 32.955 74.0008 33.505C73.1794 34.055 72.2224 34.33 71.1298 34.33C70.5724 34.33 70.0554 34.264 69.5788 34.132C69.1094 34 68.6804 33.813 68.2918 33.571V39.28H65.2778ZM70.6458 31.668C71.2911 31.668 71.8191 31.5067 72.2298 31.184C72.6404 30.8613 72.9448 30.4287 73.1428 29.886C73.3408 29.336 73.4398 28.7273 73.4398 28.06C73.4398 27.4 73.3371 26.7987 73.1318 26.256C72.9264 25.706 72.6074 25.2697 72.1748 24.947C71.7494 24.617 71.2031 24.452 70.5358 24.452C69.6044 24.452 68.9334 24.7857 68.5228 25.453C68.1194 26.113 67.9178 26.982 67.9178 28.06C67.9178 29.138 68.1231 30.0107 68.5338 30.678C68.9444 31.338 69.6484 31.668 70.6458 31.668ZM84.5503 34.33C83.3329 34.33 82.2586 34.0697 81.3273 33.549C80.4033 33.021 79.6773 32.2987 79.1493 31.382C78.6286 30.458 78.3683 29.402 78.3683 28.214C78.3683 26.916 78.6249 25.7867 79.1383 24.826C79.6516 23.8653 80.3593 23.121 81.2613 22.593C82.1633 22.0577 83.2009 21.79 84.3743 21.79C85.6209 21.79 86.6806 22.0833 87.5533 22.67C88.4259 23.2567 89.0713 24.0817 89.4893 25.145C89.9073 26.2083 90.0539 27.4587 89.9293 28.896H81.5913C81.7013 29.7467 81.9873 30.3993 82.4493 30.854C82.9186 31.3087 83.5603 31.536 84.3743 31.536C85.5623 31.536 86.3836 31.0373 86.8383 30.04L89.8303 30.898C89.3829 31.9833 88.6753 32.8267 87.7073 33.428C86.7466 34.0293 85.6943 34.33 84.5503 34.33ZM84.5063 24.386C82.9296 24.386 81.9836 25.1487 81.6683 26.674H86.9043C86.7943 25.8673 86.5449 25.2843 86.1563 24.925C85.7749 24.5657 85.2249 24.386 84.5063 24.386ZM97.935 34.33C96.7177 34.33 95.6434 34.0697 94.712 33.549C93.788 33.021 93.062 32.2987 92.534 31.382C92.0134 30.458 91.753 29.402 91.753 28.214C91.753 26.916 92.0097 25.7867 92.523 24.826C93.0364 23.8653 93.744 23.121 94.646 22.593C95.548 22.0577 96.5857 21.79 97.759 21.79C99.0057 21.79 100.065 22.0833 100.938 22.67C101.811 23.2567 102.456 24.0817 102.874 25.145C103.292 26.2083 103.439 27.4587 103.314 28.896H94.976C95.086 29.7467 95.372 30.3993 95.834 30.854C96.3034 31.3087 96.945 31.536 97.759 31.536C98.947 31.536 99.7684 31.0373 100.223 30.04L103.215 30.898C102.768 31.9833 102.06 32.8267 101.092 33.428C100.131 34.0293 99.079 34.33 97.935 34.33ZM97.891 24.386C96.3144 24.386 95.3684 25.1487 95.053 26.674H100.289C100.179 25.8673 99.9297 25.2843 99.541 24.925C99.1597 24.5657 98.6097 24.386 97.891 24.386ZM110.616 34.33C109.523 34.33 108.566 34.055 107.745 33.505C106.923 32.955 106.282 32.207 105.82 31.261C105.365 30.315 105.138 29.248 105.138 28.06C105.138 26.85 105.369 25.7757 105.831 24.837C106.3 23.891 106.956 23.1467 107.8 22.604C108.643 22.0613 109.633 21.79 110.77 21.79C111.29 21.79 111.774 21.8523 112.222 21.977C112.676 22.1017 113.087 22.2813 113.454 22.516V18.16H116.468V34H113.828V33.318C113.41 33.6407 112.933 33.89 112.398 34.066C111.862 34.242 111.268 34.33 110.616 34.33ZM111.1 31.668C112.104 31.668 112.808 31.338 113.212 30.678C113.622 30.0107 113.828 29.138 113.828 28.06C113.828 26.982 113.626 26.113 113.223 25.453C112.819 24.7857 112.148 24.452 111.21 24.452C110.542 24.452 109.992 24.617 109.56 24.947C109.134 25.2697 108.819 25.706 108.614 26.256C108.408 26.7987 108.306 27.4 108.306 28.06C108.306 28.7273 108.405 29.336 108.603 29.886C108.801 30.4287 109.105 30.8613 109.516 31.184C109.926 31.5067 110.454 31.668 111.1 31.668ZM119.548 34V18.16H126.236C126.39 18.16 126.595 18.1673 126.852 18.182C127.116 18.1893 127.35 18.2113 127.556 18.248C128.978 18.468 130.016 19.0473 130.669 19.986C131.321 20.9247 131.648 22.0613 131.648 23.396C131.648 24.7233 131.318 25.86 130.658 26.806C129.998 27.7447 128.964 28.324 127.556 28.544C127.35 28.5733 127.116 28.5953 126.852 28.61C126.588 28.6247 126.382 28.632 126.236 28.632H122.54V34H119.548ZM122.54 25.838H126.104C126.258 25.838 126.426 25.8307 126.61 25.816C126.793 25.8013 126.962 25.772 127.116 25.728C127.519 25.618 127.831 25.4347 128.051 25.178C128.271 24.914 128.421 24.6243 128.502 24.309C128.59 23.9863 128.634 23.682 128.634 23.396C128.634 23.11 128.59 22.8093 128.502 22.494C128.421 22.1713 128.271 21.8817 128.051 21.625C127.831 21.361 127.519 21.174 127.116 21.064C126.962 21.02 126.793 20.9907 126.61 20.976C126.426 20.9613 126.258 20.954 126.104 20.954H122.54V25.838ZM133.856 34V22.12H136.496V24.034C136.65 23.7553 136.83 23.5023 137.035 23.275C137.248 23.0477 137.494 22.8533 137.772 22.692C138.205 22.428 138.689 22.252 139.224 22.164C139.76 22.0687 140.295 22.054 140.83 22.12V24.914C140.5 24.8113 140.115 24.7783 139.675 24.815C139.243 24.8443 138.85 24.9433 138.498 25.112C137.413 25.6107 136.87 26.5493 136.87 27.928V34H133.856ZM148.054 34.33C146.859 34.33 145.81 34.0623 144.908 33.527C144.006 32.9917 143.302 32.2547 142.796 31.316C142.297 30.37 142.048 29.2847 142.048 28.06C142.048 26.8207 142.305 25.7317 142.818 24.793C143.331 23.847 144.039 23.11 144.941 22.582C145.843 22.054 146.881 21.79 148.054 21.79C149.249 21.79 150.298 22.0577 151.2 22.593C152.109 23.1283 152.817 23.869 153.323 24.815C153.829 25.7537 154.082 26.8353 154.082 28.06C154.082 29.292 153.825 30.381 153.312 31.327C152.806 32.2657 152.098 33.0027 151.189 33.538C150.287 34.066 149.242 34.33 148.054 34.33ZM148.054 31.536C149.015 31.536 149.73 31.2133 150.199 30.568C150.676 29.9153 150.914 29.0793 150.914 28.06C150.914 27.004 150.672 26.1607 150.188 25.53C149.711 24.8993 149 24.584 148.054 24.584C147.079 24.584 146.36 24.9067 145.898 25.552C145.443 26.19 145.216 27.026 145.216 28.06C145.216 29.1233 145.454 29.9703 145.931 30.601C146.415 31.2243 147.123 31.536 148.054 31.536ZM154.751 34L158.997 27.994L154.839 22.12H158.359L160.735 25.64L163.067 22.12H166.587L162.429 27.994L166.697 34H163.177L160.735 30.348L158.271 34H154.751ZM168.688 34V22.12H171.68V34H168.688ZM170.184 20.899C169.685 20.899 169.267 20.7303 168.93 20.393C168.6 20.0557 168.435 19.645 168.435 19.161C168.435 18.6697 168.6 18.259 168.93 17.929C169.267 17.5917 169.685 17.423 170.184 17.423C170.69 17.423 171.108 17.5917 171.438 17.929C171.768 18.259 171.933 18.6697 171.933 19.161C171.933 19.645 171.768 20.0557 171.438 20.393C171.108 20.7303 170.69 20.899 170.184 20.899ZM180.5 34.33C179.282 34.33 178.208 34.0697 177.277 33.549C176.353 33.021 175.627 32.2987 175.099 31.382C174.578 30.458 174.318 29.402 174.318 28.214C174.318 26.916 174.574 25.7867 175.088 24.826C175.601 23.8653 176.309 23.121 177.211 22.593C178.113 22.0577 179.15 21.79 180.324 21.79C181.57 21.79 182.63 22.0833 183.503 22.67C184.375 23.2567 185.021 24.0817 185.439 25.145C185.857 26.2083 186.003 27.4587 185.879 28.896H177.541C177.651 29.7467 177.937 30.3993 178.399 30.854C178.868 31.3087 179.51 31.536 180.324 31.536C181.512 31.536 182.333 31.0373 182.788 30.04L185.78 30.898C185.332 31.9833 184.625 32.8267 183.657 33.428C182.696 34.0293 181.644 34.33 180.5 34.33ZM180.456 24.386C178.879 24.386 177.933 25.1487 177.618 26.674H182.854C182.744 25.8673 182.494 25.2843 182.106 24.925C181.724 24.5657 181.174 24.386 180.456 24.386ZM193.004 34.33C191.508 34.33 190.298 33.9927 189.374 33.318C188.458 32.636 187.9 31.6753 187.702 30.436L190.76 29.974C190.885 30.5313 191.16 30.9677 191.585 31.283C192.018 31.5983 192.564 31.756 193.224 31.756C193.767 31.756 194.185 31.6533 194.478 31.448C194.772 31.2353 194.918 30.942 194.918 30.568C194.918 30.3333 194.86 30.1463 194.742 30.007C194.625 29.8603 194.361 29.7173 193.95 29.578C193.547 29.4387 192.916 29.2553 192.058 29.028C190.606 28.654 189.583 28.2067 188.989 27.686C188.395 27.158 188.098 26.4393 188.098 25.53C188.098 24.386 188.527 23.4767 189.385 22.802C190.243 22.1273 191.391 21.79 192.828 21.79C194.229 21.79 195.38 22.109 196.282 22.747C197.184 23.3777 197.712 24.232 197.866 25.31L194.808 25.86C194.698 24.9507 194.06 24.452 192.894 24.364C192.344 24.3273 191.901 24.4007 191.563 24.584C191.233 24.7673 191.068 25.0313 191.068 25.376C191.068 25.5813 191.138 25.7537 191.277 25.893C191.424 26.0323 191.721 26.1753 192.168 26.322C192.623 26.4687 193.312 26.6593 194.236 26.894C195.593 27.246 196.554 27.6897 197.118 28.225C197.69 28.7603 197.976 29.49 197.976 30.414C197.976 31.6313 197.536 32.5883 196.656 33.285C195.776 33.9817 194.559 34.33 193.004 34.33Z" fill="#C0CCDA"/>
</svg>
